<mxfile host="app.diagrams.net" modified="2023-11-03T18:17:39.063Z" agent="Mozilla/5.0 (X11; Linux x86_64) AppleWebKit/537.36 (KHTML, like Gecko) Chrome/118.0.0.0 Safari/537.36" version="22.0.8" etag="kyrYx8FUu19vzlZAc3Ec" type="device">
  <diagram id="wLx2nraHEfDCj9btGWHz" name="Page-1">
    <mxGraphModel dx="1434" dy="786" grid="1" gridSize="10" guides="1" tooltips="1" connect="1" arrows="1" fold="1" page="1" pageScale="1" pageWidth="827" pageHeight="1169" math="0" shadow="0">
      <root>
        <mxCell id="0" />
        <mxCell id="1" parent="0" />
        <mxCell id="hk00Rdq8uAhm8ICl378K-64" style="edgeStyle=none;rounded=0;orthogonalLoop=1;jettySize=auto;html=1;exitX=0;exitY=0.5;exitDx=0;exitDy=0;entryX=1;entryY=0.5;entryDx=0;entryDy=0;endArrow=none;endFill=0;" edge="1" parent="1" source="hk00Rdq8uAhm8ICl378K-2" target="hk00Rdq8uAhm8ICl378K-21">
          <mxGeometry relative="1" as="geometry" />
        </mxCell>
        <mxCell id="hk00Rdq8uAhm8ICl378K-65" style="edgeStyle=none;rounded=0;orthogonalLoop=1;jettySize=auto;html=1;exitX=0;exitY=0.5;exitDx=0;exitDy=0;entryX=1;entryY=0.5;entryDx=0;entryDy=0;endArrow=none;endFill=0;" edge="1" parent="1" source="hk00Rdq8uAhm8ICl378K-2" target="hk00Rdq8uAhm8ICl378K-22">
          <mxGeometry relative="1" as="geometry" />
        </mxCell>
        <mxCell id="hk00Rdq8uAhm8ICl378K-66" style="edgeStyle=none;rounded=0;orthogonalLoop=1;jettySize=auto;html=1;exitX=0;exitY=0.5;exitDx=0;exitDy=0;entryX=1;entryY=1;entryDx=0;entryDy=0;endArrow=none;endFill=0;" edge="1" parent="1" source="hk00Rdq8uAhm8ICl378K-2" target="hk00Rdq8uAhm8ICl378K-23">
          <mxGeometry relative="1" as="geometry" />
        </mxCell>
        <mxCell id="hk00Rdq8uAhm8ICl378K-68" style="edgeStyle=none;rounded=0;orthogonalLoop=1;jettySize=auto;html=1;exitX=0;exitY=0.5;exitDx=0;exitDy=0;endArrow=none;endFill=0;" edge="1" parent="1" source="hk00Rdq8uAhm8ICl378K-2" target="hk00Rdq8uAhm8ICl378K-24">
          <mxGeometry relative="1" as="geometry" />
        </mxCell>
        <mxCell id="hk00Rdq8uAhm8ICl378K-69" style="edgeStyle=none;rounded=0;orthogonalLoop=1;jettySize=auto;html=1;exitX=0;exitY=0.5;exitDx=0;exitDy=0;entryX=1;entryY=0.5;entryDx=0;entryDy=0;endArrow=none;endFill=0;" edge="1" parent="1" source="hk00Rdq8uAhm8ICl378K-2" target="hk00Rdq8uAhm8ICl378K-28">
          <mxGeometry relative="1" as="geometry" />
        </mxCell>
        <mxCell id="hk00Rdq8uAhm8ICl378K-70" style="edgeStyle=none;rounded=0;orthogonalLoop=1;jettySize=auto;html=1;exitX=0;exitY=0.5;exitDx=0;exitDy=0;entryX=1;entryY=0.5;entryDx=0;entryDy=0;endArrow=none;endFill=0;" edge="1" parent="1" source="hk00Rdq8uAhm8ICl378K-2" target="hk00Rdq8uAhm8ICl378K-29">
          <mxGeometry relative="1" as="geometry" />
        </mxCell>
        <mxCell id="hk00Rdq8uAhm8ICl378K-71" style="edgeStyle=none;rounded=0;orthogonalLoop=1;jettySize=auto;html=1;exitX=0;exitY=0.5;exitDx=0;exitDy=0;entryX=1;entryY=0;entryDx=0;entryDy=0;endArrow=none;endFill=0;" edge="1" parent="1" source="hk00Rdq8uAhm8ICl378K-2" target="hk00Rdq8uAhm8ICl378K-31">
          <mxGeometry relative="1" as="geometry" />
        </mxCell>
        <mxCell id="hk00Rdq8uAhm8ICl378K-72" style="edgeStyle=none;rounded=0;orthogonalLoop=1;jettySize=auto;html=1;exitX=0;exitY=0.5;exitDx=0;exitDy=0;entryX=1;entryY=0.5;entryDx=0;entryDy=0;endArrow=none;endFill=0;" edge="1" parent="1" source="hk00Rdq8uAhm8ICl378K-2" target="hk00Rdq8uAhm8ICl378K-31">
          <mxGeometry relative="1" as="geometry" />
        </mxCell>
        <mxCell id="hk00Rdq8uAhm8ICl378K-74" style="edgeStyle=none;rounded=0;orthogonalLoop=1;jettySize=auto;html=1;exitX=0;exitY=0.5;exitDx=0;exitDy=0;entryX=1;entryY=0.5;entryDx=0;entryDy=0;endArrow=none;endFill=0;" edge="1" parent="1" source="hk00Rdq8uAhm8ICl378K-2" target="hk00Rdq8uAhm8ICl378K-32">
          <mxGeometry relative="1" as="geometry" />
        </mxCell>
        <mxCell id="hk00Rdq8uAhm8ICl378K-75" style="edgeStyle=none;rounded=0;orthogonalLoop=1;jettySize=auto;html=1;exitX=0;exitY=0.5;exitDx=0;exitDy=0;entryX=1;entryY=0.5;entryDx=0;entryDy=0;endArrow=none;endFill=0;" edge="1" parent="1" source="hk00Rdq8uAhm8ICl378K-2" target="hk00Rdq8uAhm8ICl378K-33">
          <mxGeometry relative="1" as="geometry" />
        </mxCell>
        <mxCell id="hk00Rdq8uAhm8ICl378K-76" style="edgeStyle=none;rounded=0;orthogonalLoop=1;jettySize=auto;html=1;exitX=0;exitY=0.5;exitDx=0;exitDy=0;entryX=1;entryY=0;entryDx=0;entryDy=0;endArrow=none;endFill=0;" edge="1" parent="1" source="hk00Rdq8uAhm8ICl378K-2" target="hk00Rdq8uAhm8ICl378K-34">
          <mxGeometry relative="1" as="geometry" />
        </mxCell>
        <mxCell id="hk00Rdq8uAhm8ICl378K-77" style="edgeStyle=none;rounded=0;orthogonalLoop=1;jettySize=auto;html=1;exitX=0;exitY=0.5;exitDx=0;exitDy=0;entryX=1;entryY=0;entryDx=0;entryDy=0;endArrow=none;endFill=0;" edge="1" parent="1" source="hk00Rdq8uAhm8ICl378K-2" target="hk00Rdq8uAhm8ICl378K-25">
          <mxGeometry relative="1" as="geometry" />
        </mxCell>
        <mxCell id="hk00Rdq8uAhm8ICl378K-118" style="edgeStyle=orthogonalEdgeStyle;rounded=0;orthogonalLoop=1;jettySize=auto;html=1;exitX=1;exitY=0.5;exitDx=0;exitDy=0;endArrow=none;endFill=0;startArrow=ERoneToMany;startFill=0;" edge="1" parent="1" source="hk00Rdq8uAhm8ICl378K-2" target="hk00Rdq8uAhm8ICl378K-113">
          <mxGeometry relative="1" as="geometry" />
        </mxCell>
        <mxCell id="hk00Rdq8uAhm8ICl378K-120" style="edgeStyle=orthogonalEdgeStyle;rounded=0;orthogonalLoop=1;jettySize=auto;html=1;exitX=0.5;exitY=0;exitDx=0;exitDy=0;endArrow=none;endFill=0;startArrow=ERoneToMany;startFill=0;" edge="1" parent="1" source="hk00Rdq8uAhm8ICl378K-2" target="hk00Rdq8uAhm8ICl378K-119">
          <mxGeometry relative="1" as="geometry" />
        </mxCell>
        <mxCell id="hk00Rdq8uAhm8ICl378K-132" style="edgeStyle=orthogonalEdgeStyle;rounded=0;orthogonalLoop=1;jettySize=auto;html=1;exitX=0.5;exitY=1;exitDx=0;exitDy=0;startArrow=ERone;startFill=0;endArrow=none;endFill=0;" edge="1" parent="1" source="hk00Rdq8uAhm8ICl378K-2" target="hk00Rdq8uAhm8ICl378K-127">
          <mxGeometry relative="1" as="geometry" />
        </mxCell>
        <mxCell id="hk00Rdq8uAhm8ICl378K-2" value="Tutor" style="rounded=0;whiteSpace=wrap;html=1;" vertex="1" parent="1">
          <mxGeometry x="142" y="231" width="80" height="40" as="geometry" />
        </mxCell>
        <mxCell id="hk00Rdq8uAhm8ICl378K-82" style="edgeStyle=none;rounded=0;orthogonalLoop=1;jettySize=auto;html=1;exitX=0.5;exitY=0;exitDx=0;exitDy=0;entryX=0.5;entryY=1;entryDx=0;entryDy=0;endArrow=none;endFill=0;" edge="1" parent="1" source="hk00Rdq8uAhm8ICl378K-3" target="hk00Rdq8uAhm8ICl378K-19">
          <mxGeometry relative="1" as="geometry" />
        </mxCell>
        <mxCell id="hk00Rdq8uAhm8ICl378K-83" style="edgeStyle=none;rounded=0;orthogonalLoop=1;jettySize=auto;html=1;exitX=0.5;exitY=0;exitDx=0;exitDy=0;endArrow=none;endFill=0;" edge="1" parent="1" source="hk00Rdq8uAhm8ICl378K-3" target="hk00Rdq8uAhm8ICl378K-20">
          <mxGeometry relative="1" as="geometry" />
        </mxCell>
        <mxCell id="hk00Rdq8uAhm8ICl378K-124" style="edgeStyle=orthogonalEdgeStyle;rounded=0;orthogonalLoop=1;jettySize=auto;html=1;exitX=1;exitY=0.5;exitDx=0;exitDy=0;endArrow=none;endFill=0;startArrow=ERoneToMany;startFill=0;" edge="1" parent="1" source="hk00Rdq8uAhm8ICl378K-3" target="hk00Rdq8uAhm8ICl378K-123">
          <mxGeometry relative="1" as="geometry" />
        </mxCell>
        <mxCell id="hk00Rdq8uAhm8ICl378K-3" value="Area" style="rounded=0;whiteSpace=wrap;html=1;" vertex="1" parent="1">
          <mxGeometry x="242" y="93" width="80" height="40" as="geometry" />
        </mxCell>
        <mxCell id="hk00Rdq8uAhm8ICl378K-80" style="edgeStyle=none;rounded=0;orthogonalLoop=1;jettySize=auto;html=1;exitX=0.5;exitY=0;exitDx=0;exitDy=0;endArrow=none;endFill=0;" edge="1" parent="1" source="hk00Rdq8uAhm8ICl378K-4" target="hk00Rdq8uAhm8ICl378K-12">
          <mxGeometry relative="1" as="geometry" />
        </mxCell>
        <mxCell id="hk00Rdq8uAhm8ICl378K-81" style="edgeStyle=none;rounded=0;orthogonalLoop=1;jettySize=auto;html=1;exitX=0.5;exitY=0;exitDx=0;exitDy=0;endArrow=none;endFill=0;" edge="1" parent="1" source="hk00Rdq8uAhm8ICl378K-4" target="hk00Rdq8uAhm8ICl378K-13">
          <mxGeometry relative="1" as="geometry" />
        </mxCell>
        <mxCell id="hk00Rdq8uAhm8ICl378K-4" value="City" style="rounded=0;whiteSpace=wrap;html=1;" vertex="1" parent="1">
          <mxGeometry x="462" y="74" width="80" height="40" as="geometry" />
        </mxCell>
        <mxCell id="hk00Rdq8uAhm8ICl378K-78" style="edgeStyle=none;rounded=0;orthogonalLoop=1;jettySize=auto;html=1;exitX=0.5;exitY=0;exitDx=0;exitDy=0;endArrow=none;endFill=0;" edge="1" parent="1" source="hk00Rdq8uAhm8ICl378K-5" target="hk00Rdq8uAhm8ICl378K-10">
          <mxGeometry relative="1" as="geometry" />
        </mxCell>
        <mxCell id="hk00Rdq8uAhm8ICl378K-79" style="edgeStyle=none;rounded=0;orthogonalLoop=1;jettySize=auto;html=1;exitX=0.5;exitY=0;exitDx=0;exitDy=0;endArrow=none;endFill=0;" edge="1" parent="1" source="hk00Rdq8uAhm8ICl378K-5" target="hk00Rdq8uAhm8ICl378K-11">
          <mxGeometry relative="1" as="geometry" />
        </mxCell>
        <mxCell id="hk00Rdq8uAhm8ICl378K-5" value="University&amp;nbsp;" style="rounded=0;whiteSpace=wrap;html=1;" vertex="1" parent="1">
          <mxGeometry x="103" y="72" width="80" height="40" as="geometry" />
        </mxCell>
        <mxCell id="hk00Rdq8uAhm8ICl378K-85" style="edgeStyle=none;rounded=0;orthogonalLoop=1;jettySize=auto;html=1;exitX=1;exitY=0.5;exitDx=0;exitDy=0;entryX=0;entryY=0.5;entryDx=0;entryDy=0;" edge="1" parent="1" source="hk00Rdq8uAhm8ICl378K-6" target="hk00Rdq8uAhm8ICl378K-15">
          <mxGeometry relative="1" as="geometry" />
        </mxCell>
        <mxCell id="hk00Rdq8uAhm8ICl378K-86" style="edgeStyle=none;rounded=0;orthogonalLoop=1;jettySize=auto;html=1;exitX=1;exitY=0.5;exitDx=0;exitDy=0;" edge="1" parent="1" source="hk00Rdq8uAhm8ICl378K-6" target="hk00Rdq8uAhm8ICl378K-16">
          <mxGeometry relative="1" as="geometry" />
        </mxCell>
        <mxCell id="hk00Rdq8uAhm8ICl378K-87" style="edgeStyle=none;rounded=0;orthogonalLoop=1;jettySize=auto;html=1;exitX=1;exitY=0.5;exitDx=0;exitDy=0;" edge="1" parent="1" source="hk00Rdq8uAhm8ICl378K-6" target="hk00Rdq8uAhm8ICl378K-17">
          <mxGeometry relative="1" as="geometry" />
        </mxCell>
        <mxCell id="hk00Rdq8uAhm8ICl378K-88" style="edgeStyle=none;rounded=0;orthogonalLoop=1;jettySize=auto;html=1;exitX=1;exitY=0.5;exitDx=0;exitDy=0;entryX=0;entryY=0;entryDx=0;entryDy=0;" edge="1" parent="1" source="hk00Rdq8uAhm8ICl378K-6" target="hk00Rdq8uAhm8ICl378K-18">
          <mxGeometry relative="1" as="geometry" />
        </mxCell>
        <mxCell id="hk00Rdq8uAhm8ICl378K-115" style="edgeStyle=none;rounded=0;orthogonalLoop=1;jettySize=auto;html=1;exitX=0;exitY=0.5;exitDx=0;exitDy=0;endArrow=none;endFill=0;startArrow=ERoneToMany;startFill=0;" edge="1" parent="1" source="hk00Rdq8uAhm8ICl378K-6" target="hk00Rdq8uAhm8ICl378K-114">
          <mxGeometry relative="1" as="geometry" />
        </mxCell>
        <mxCell id="hk00Rdq8uAhm8ICl378K-128" style="edgeStyle=orthogonalEdgeStyle;rounded=0;orthogonalLoop=1;jettySize=auto;html=1;exitX=0.5;exitY=1;exitDx=0;exitDy=0;entryX=0.5;entryY=0;entryDx=0;entryDy=0;startArrow=ERone;startFill=0;endArrow=none;endFill=0;" edge="1" parent="1" source="hk00Rdq8uAhm8ICl378K-6" target="hk00Rdq8uAhm8ICl378K-126">
          <mxGeometry relative="1" as="geometry" />
        </mxCell>
        <mxCell id="hk00Rdq8uAhm8ICl378K-6" value="Student" style="rounded=0;whiteSpace=wrap;html=1;" vertex="1" parent="1">
          <mxGeometry x="426" y="152" width="80" height="40" as="geometry" />
        </mxCell>
        <mxCell id="hk00Rdq8uAhm8ICl378K-108" style="edgeStyle=none;rounded=0;orthogonalLoop=1;jettySize=auto;html=1;exitX=0;exitY=0.5;exitDx=0;exitDy=0;entryX=1;entryY=0.5;entryDx=0;entryDy=0;" edge="1" parent="1" source="hk00Rdq8uAhm8ICl378K-7" target="hk00Rdq8uAhm8ICl378K-41">
          <mxGeometry relative="1" as="geometry" />
        </mxCell>
        <mxCell id="hk00Rdq8uAhm8ICl378K-109" style="edgeStyle=none;rounded=0;orthogonalLoop=1;jettySize=auto;html=1;exitX=0;exitY=0.5;exitDx=0;exitDy=0;" edge="1" parent="1" source="hk00Rdq8uAhm8ICl378K-7" target="hk00Rdq8uAhm8ICl378K-42">
          <mxGeometry relative="1" as="geometry" />
        </mxCell>
        <mxCell id="hk00Rdq8uAhm8ICl378K-110" style="edgeStyle=none;rounded=0;orthogonalLoop=1;jettySize=auto;html=1;" edge="1" parent="1" source="hk00Rdq8uAhm8ICl378K-7" target="hk00Rdq8uAhm8ICl378K-43">
          <mxGeometry relative="1" as="geometry" />
        </mxCell>
        <mxCell id="hk00Rdq8uAhm8ICl378K-111" style="edgeStyle=none;rounded=0;orthogonalLoop=1;jettySize=auto;html=1;" edge="1" parent="1" source="hk00Rdq8uAhm8ICl378K-7" target="hk00Rdq8uAhm8ICl378K-44">
          <mxGeometry relative="1" as="geometry" />
        </mxCell>
        <mxCell id="hk00Rdq8uAhm8ICl378K-7" value="User" style="rounded=0;whiteSpace=wrap;html=1;" vertex="1" parent="1">
          <mxGeometry x="172" y="967" width="80" height="40" as="geometry" />
        </mxCell>
        <mxCell id="hk00Rdq8uAhm8ICl378K-89" style="edgeStyle=none;rounded=0;orthogonalLoop=1;jettySize=auto;html=1;exitX=1;exitY=0.5;exitDx=0;exitDy=0;entryX=0;entryY=1;entryDx=0;entryDy=0;endArrow=none;endFill=0;" edge="1" parent="1" source="hk00Rdq8uAhm8ICl378K-8" target="hk00Rdq8uAhm8ICl378K-47">
          <mxGeometry relative="1" as="geometry" />
        </mxCell>
        <mxCell id="hk00Rdq8uAhm8ICl378K-91" style="edgeStyle=none;rounded=0;orthogonalLoop=1;jettySize=auto;html=1;exitX=1;exitY=0.5;exitDx=0;exitDy=0;entryX=0;entryY=1;entryDx=0;entryDy=0;endArrow=none;endFill=0;" edge="1" parent="1" source="hk00Rdq8uAhm8ICl378K-8" target="hk00Rdq8uAhm8ICl378K-49">
          <mxGeometry relative="1" as="geometry" />
        </mxCell>
        <mxCell id="hk00Rdq8uAhm8ICl378K-92" style="edgeStyle=none;rounded=0;orthogonalLoop=1;jettySize=auto;html=1;exitX=1;exitY=0.5;exitDx=0;exitDy=0;endArrow=none;endFill=0;" edge="1" parent="1" source="hk00Rdq8uAhm8ICl378K-8" target="hk00Rdq8uAhm8ICl378K-50">
          <mxGeometry relative="1" as="geometry" />
        </mxCell>
        <mxCell id="hk00Rdq8uAhm8ICl378K-93" style="edgeStyle=none;rounded=0;orthogonalLoop=1;jettySize=auto;html=1;exitX=1;exitY=0.5;exitDx=0;exitDy=0;endArrow=none;endFill=0;" edge="1" parent="1" source="hk00Rdq8uAhm8ICl378K-8" target="hk00Rdq8uAhm8ICl378K-52">
          <mxGeometry relative="1" as="geometry" />
        </mxCell>
        <mxCell id="hk00Rdq8uAhm8ICl378K-94" style="edgeStyle=none;rounded=0;orthogonalLoop=1;jettySize=auto;html=1;exitX=1;exitY=0.5;exitDx=0;exitDy=0;entryX=0;entryY=0.5;entryDx=0;entryDy=0;endArrow=none;endFill=0;" edge="1" parent="1" source="hk00Rdq8uAhm8ICl378K-8" target="hk00Rdq8uAhm8ICl378K-53">
          <mxGeometry relative="1" as="geometry" />
        </mxCell>
        <mxCell id="hk00Rdq8uAhm8ICl378K-95" style="edgeStyle=none;rounded=0;orthogonalLoop=1;jettySize=auto;html=1;exitX=1;exitY=0.5;exitDx=0;exitDy=0;entryX=0;entryY=0.5;entryDx=0;entryDy=0;endArrow=none;endFill=0;" edge="1" parent="1" source="hk00Rdq8uAhm8ICl378K-8" target="hk00Rdq8uAhm8ICl378K-54">
          <mxGeometry relative="1" as="geometry" />
        </mxCell>
        <mxCell id="hk00Rdq8uAhm8ICl378K-96" style="edgeStyle=none;rounded=0;orthogonalLoop=1;jettySize=auto;html=1;exitX=1;exitY=0.5;exitDx=0;exitDy=0;entryX=0;entryY=0.5;entryDx=0;entryDy=0;endArrow=none;endFill=0;" edge="1" parent="1" source="hk00Rdq8uAhm8ICl378K-8" target="hk00Rdq8uAhm8ICl378K-55">
          <mxGeometry relative="1" as="geometry" />
        </mxCell>
        <mxCell id="hk00Rdq8uAhm8ICl378K-97" style="edgeStyle=none;rounded=0;orthogonalLoop=1;jettySize=auto;html=1;exitX=1;exitY=0.5;exitDx=0;exitDy=0;entryX=0;entryY=0.5;entryDx=0;entryDy=0;endArrow=none;endFill=0;" edge="1" parent="1" source="hk00Rdq8uAhm8ICl378K-8" target="hk00Rdq8uAhm8ICl378K-56">
          <mxGeometry relative="1" as="geometry" />
        </mxCell>
        <mxCell id="hk00Rdq8uAhm8ICl378K-98" style="edgeStyle=none;rounded=0;orthogonalLoop=1;jettySize=auto;html=1;exitX=1;exitY=0.5;exitDx=0;exitDy=0;entryX=0;entryY=0.5;entryDx=0;entryDy=0;endArrow=none;endFill=0;" edge="1" parent="1" source="hk00Rdq8uAhm8ICl378K-8" target="hk00Rdq8uAhm8ICl378K-57">
          <mxGeometry relative="1" as="geometry" />
        </mxCell>
        <mxCell id="hk00Rdq8uAhm8ICl378K-99" style="edgeStyle=none;rounded=0;orthogonalLoop=1;jettySize=auto;html=1;exitX=1;exitY=0.5;exitDx=0;exitDy=0;entryX=0;entryY=0.5;entryDx=0;entryDy=0;endArrow=none;endFill=0;" edge="1" parent="1" source="hk00Rdq8uAhm8ICl378K-8" target="hk00Rdq8uAhm8ICl378K-58">
          <mxGeometry relative="1" as="geometry" />
        </mxCell>
        <mxCell id="hk00Rdq8uAhm8ICl378K-100" style="edgeStyle=none;rounded=0;orthogonalLoop=1;jettySize=auto;html=1;exitX=1;exitY=0.5;exitDx=0;exitDy=0;entryX=0;entryY=0.5;entryDx=0;entryDy=0;endArrow=none;endFill=0;" edge="1" parent="1" source="hk00Rdq8uAhm8ICl378K-8" target="hk00Rdq8uAhm8ICl378K-59">
          <mxGeometry relative="1" as="geometry" />
        </mxCell>
        <mxCell id="hk00Rdq8uAhm8ICl378K-101" style="edgeStyle=none;rounded=0;orthogonalLoop=1;jettySize=auto;html=1;exitX=1;exitY=0.5;exitDx=0;exitDy=0;entryX=0;entryY=0.5;entryDx=0;entryDy=0;endArrow=none;endFill=0;" edge="1" parent="1" source="hk00Rdq8uAhm8ICl378K-8" target="hk00Rdq8uAhm8ICl378K-60">
          <mxGeometry relative="1" as="geometry" />
        </mxCell>
        <mxCell id="hk00Rdq8uAhm8ICl378K-8" value="TutorRequest" style="rounded=0;whiteSpace=wrap;html=1;" vertex="1" parent="1">
          <mxGeometry x="355" y="373" width="80" height="40" as="geometry" />
        </mxCell>
        <mxCell id="hk00Rdq8uAhm8ICl378K-103" style="edgeStyle=none;rounded=0;orthogonalLoop=1;jettySize=auto;html=1;exitX=0.5;exitY=1;exitDx=0;exitDy=0;entryX=1;entryY=0;entryDx=0;entryDy=0;endArrow=none;endFill=0;" edge="1" parent="1" source="hk00Rdq8uAhm8ICl378K-9" target="hk00Rdq8uAhm8ICl378K-38">
          <mxGeometry relative="1" as="geometry" />
        </mxCell>
        <mxCell id="hk00Rdq8uAhm8ICl378K-104" style="edgeStyle=none;rounded=0;orthogonalLoop=1;jettySize=auto;html=1;exitX=0.5;exitY=1;exitDx=0;exitDy=0;endArrow=none;endFill=0;" edge="1" parent="1" source="hk00Rdq8uAhm8ICl378K-9" target="hk00Rdq8uAhm8ICl378K-35">
          <mxGeometry relative="1" as="geometry" />
        </mxCell>
        <mxCell id="hk00Rdq8uAhm8ICl378K-106" style="edgeStyle=none;rounded=0;orthogonalLoop=1;jettySize=auto;html=1;exitX=0.5;exitY=1;exitDx=0;exitDy=0;entryX=0.5;entryY=0;entryDx=0;entryDy=0;endArrow=none;endFill=0;" edge="1" parent="1" source="hk00Rdq8uAhm8ICl378K-9" target="hk00Rdq8uAhm8ICl378K-36">
          <mxGeometry relative="1" as="geometry" />
        </mxCell>
        <mxCell id="hk00Rdq8uAhm8ICl378K-9" value="Response" style="rounded=0;whiteSpace=wrap;html=1;" vertex="1" parent="1">
          <mxGeometry x="152" y="387" width="80" height="40" as="geometry" />
        </mxCell>
        <mxCell id="hk00Rdq8uAhm8ICl378K-10" value="&lt;u&gt;id&lt;/u&gt;" style="ellipse;whiteSpace=wrap;html=1;" vertex="1" parent="1">
          <mxGeometry x="63" y="12" width="70" height="40" as="geometry" />
        </mxCell>
        <mxCell id="hk00Rdq8uAhm8ICl378K-11" value="&lt;u&gt;name&lt;/u&gt;" style="ellipse;whiteSpace=wrap;html=1;" vertex="1" parent="1">
          <mxGeometry x="138" y="12" width="70" height="40" as="geometry" />
        </mxCell>
        <mxCell id="hk00Rdq8uAhm8ICl378K-12" value="&lt;u&gt;id&lt;/u&gt;" style="ellipse;whiteSpace=wrap;html=1;" vertex="1" parent="1">
          <mxGeometry x="427" y="14" width="70" height="40" as="geometry" />
        </mxCell>
        <mxCell id="hk00Rdq8uAhm8ICl378K-13" value="&lt;u&gt;name&lt;/u&gt;" style="ellipse;whiteSpace=wrap;html=1;" vertex="1" parent="1">
          <mxGeometry x="502" y="14" width="70" height="40" as="geometry" />
        </mxCell>
        <mxCell id="hk00Rdq8uAhm8ICl378K-14" value="&lt;u&gt;id&lt;/u&gt;" style="ellipse;whiteSpace=wrap;html=1;" vertex="1" parent="1">
          <mxGeometry x="546" y="97" width="70" height="30" as="geometry" />
        </mxCell>
        <mxCell id="hk00Rdq8uAhm8ICl378K-15" value="name" style="ellipse;whiteSpace=wrap;html=1;" vertex="1" parent="1">
          <mxGeometry x="556" y="127" width="70" height="30" as="geometry" />
        </mxCell>
        <mxCell id="hk00Rdq8uAhm8ICl378K-16" value="image" style="ellipse;whiteSpace=wrap;html=1;" vertex="1" parent="1">
          <mxGeometry x="562" y="157" width="70" height="30" as="geometry" />
        </mxCell>
        <mxCell id="hk00Rdq8uAhm8ICl378K-17" value="phone" style="ellipse;whiteSpace=wrap;html=1;" vertex="1" parent="1">
          <mxGeometry x="562" y="187" width="70" height="30" as="geometry" />
        </mxCell>
        <mxCell id="hk00Rdq8uAhm8ICl378K-18" value="is_onboarded" style="ellipse;whiteSpace=wrap;html=1;" vertex="1" parent="1">
          <mxGeometry x="531" y="217" width="100" height="30" as="geometry" />
        </mxCell>
        <mxCell id="hk00Rdq8uAhm8ICl378K-19" value="&lt;u&gt;id&lt;/u&gt;" style="ellipse;whiteSpace=wrap;html=1;" vertex="1" parent="1">
          <mxGeometry x="210" y="30" width="70" height="40" as="geometry" />
        </mxCell>
        <mxCell id="hk00Rdq8uAhm8ICl378K-20" value="&lt;u&gt;name&lt;/u&gt;" style="ellipse;whiteSpace=wrap;html=1;" vertex="1" parent="1">
          <mxGeometry x="285" y="30" width="70" height="40" as="geometry" />
        </mxCell>
        <mxCell id="hk00Rdq8uAhm8ICl378K-21" value="&lt;u&gt;id&lt;/u&gt;" style="ellipse;whiteSpace=wrap;html=1;" vertex="1" parent="1">
          <mxGeometry x="27" y="133" width="70" height="30" as="geometry" />
        </mxCell>
        <mxCell id="hk00Rdq8uAhm8ICl378K-22" value="name" style="ellipse;whiteSpace=wrap;html=1;" vertex="1" parent="1">
          <mxGeometry x="17" y="157" width="70" height="30" as="geometry" />
        </mxCell>
        <mxCell id="hk00Rdq8uAhm8ICl378K-23" value="image" style="ellipse;whiteSpace=wrap;html=1;" vertex="1" parent="1">
          <mxGeometry x="12" y="181" width="70" height="30" as="geometry" />
        </mxCell>
        <mxCell id="hk00Rdq8uAhm8ICl378K-24" value="bio" style="ellipse;whiteSpace=wrap;html=1;" vertex="1" parent="1">
          <mxGeometry x="2" y="208" width="70" height="30" as="geometry" />
        </mxCell>
        <mxCell id="hk00Rdq8uAhm8ICl378K-25" value="is_onboarded" style="ellipse;whiteSpace=wrap;html=1;" vertex="1" parent="1">
          <mxGeometry x="38" y="370" width="100" height="30" as="geometry" />
        </mxCell>
        <mxCell id="hk00Rdq8uAhm8ICl378K-28" value="birth_date" style="ellipse;whiteSpace=wrap;html=1;" vertex="1" parent="1">
          <mxGeometry x="2" y="230" width="70" height="30" as="geometry" />
        </mxCell>
        <mxCell id="hk00Rdq8uAhm8ICl378K-29" value="phone" style="ellipse;whiteSpace=wrap;html=1;" vertex="1" parent="1">
          <mxGeometry x="12" y="248" width="70" height="30" as="geometry" />
        </mxCell>
        <mxCell id="hk00Rdq8uAhm8ICl378K-31" value="department" style="ellipse;whiteSpace=wrap;html=1;" vertex="1" parent="1">
          <mxGeometry x="12" y="271" width="70" height="30" as="geometry" />
        </mxCell>
        <mxCell id="hk00Rdq8uAhm8ICl378K-32" value="subject" style="ellipse;whiteSpace=wrap;html=1;" vertex="1" parent="1">
          <mxGeometry x="17" y="296" width="70" height="30" as="geometry" />
        </mxCell>
        <mxCell id="hk00Rdq8uAhm8ICl378K-33" value="degree" style="ellipse;whiteSpace=wrap;html=1;" vertex="1" parent="1">
          <mxGeometry x="27" y="320" width="70" height="30" as="geometry" />
        </mxCell>
        <mxCell id="hk00Rdq8uAhm8ICl378K-34" value="experience" style="ellipse;whiteSpace=wrap;html=1;" vertex="1" parent="1">
          <mxGeometry x="38" y="343" width="70" height="30" as="geometry" />
        </mxCell>
        <mxCell id="hk00Rdq8uAhm8ICl378K-35" value="&lt;u&gt;id&lt;/u&gt;" style="ellipse;whiteSpace=wrap;html=1;" vertex="1" parent="1">
          <mxGeometry x="232" y="479.5" width="70" height="30" as="geometry" />
        </mxCell>
        <mxCell id="hk00Rdq8uAhm8ICl378K-36" value="message" style="ellipse;whiteSpace=wrap;html=1;" vertex="1" parent="1">
          <mxGeometry x="189" y="499" width="70" height="30" as="geometry" />
        </mxCell>
        <mxCell id="hk00Rdq8uAhm8ICl378K-37" value="date" style="ellipse;whiteSpace=wrap;html=1;" vertex="1" parent="1">
          <mxGeometry x="131" y="504" width="70" height="30" as="geometry" />
        </mxCell>
        <mxCell id="hk00Rdq8uAhm8ICl378K-38" value="status" style="ellipse;whiteSpace=wrap;html=1;" vertex="1" parent="1">
          <mxGeometry x="82" y="479.5" width="70" height="30" as="geometry" />
        </mxCell>
        <mxCell id="hk00Rdq8uAhm8ICl378K-40" value="&lt;u&gt;id&lt;/u&gt;" style="ellipse;whiteSpace=wrap;html=1;" vertex="1" parent="1">
          <mxGeometry x="63" y="910" width="70" height="30" as="geometry" />
        </mxCell>
        <mxCell id="hk00Rdq8uAhm8ICl378K-41" value="first_name" style="ellipse;whiteSpace=wrap;html=1;" vertex="1" parent="1">
          <mxGeometry x="53" y="934" width="70" height="30" as="geometry" />
        </mxCell>
        <mxCell id="hk00Rdq8uAhm8ICl378K-42" value="last_name" style="ellipse;whiteSpace=wrap;html=1;" vertex="1" parent="1">
          <mxGeometry x="48" y="958" width="70" height="30" as="geometry" />
        </mxCell>
        <mxCell id="hk00Rdq8uAhm8ICl378K-43" value="username" style="ellipse;whiteSpace=wrap;html=1;" vertex="1" parent="1">
          <mxGeometry x="38" y="985" width="70" height="30" as="geometry" />
        </mxCell>
        <mxCell id="hk00Rdq8uAhm8ICl378K-44" value="email" style="ellipse;whiteSpace=wrap;html=1;" vertex="1" parent="1">
          <mxGeometry x="38" y="1007" width="70" height="30" as="geometry" />
        </mxCell>
        <mxCell id="hk00Rdq8uAhm8ICl378K-45" value="password" style="ellipse;whiteSpace=wrap;html=1;" vertex="1" parent="1">
          <mxGeometry x="48" y="1033" width="70" height="30" as="geometry" />
        </mxCell>
        <mxCell id="hk00Rdq8uAhm8ICl378K-47" value="&lt;u&gt;id&lt;/u&gt;" style="ellipse;whiteSpace=wrap;html=1;" vertex="1" parent="1">
          <mxGeometry x="470" y="238" width="70" height="30" as="geometry" />
        </mxCell>
        <mxCell id="hk00Rdq8uAhm8ICl378K-48" value="title" style="ellipse;whiteSpace=wrap;html=1;" vertex="1" parent="1">
          <mxGeometry x="492" y="260" width="70" height="30" as="geometry" />
        </mxCell>
        <mxCell id="hk00Rdq8uAhm8ICl378K-49" value="message" style="ellipse;whiteSpace=wrap;html=1;" vertex="1" parent="1">
          <mxGeometry x="512" y="278" width="70" height="30" as="geometry" />
        </mxCell>
        <mxCell id="hk00Rdq8uAhm8ICl378K-50" value="medium" style="ellipse;whiteSpace=wrap;html=1;" vertex="1" parent="1">
          <mxGeometry x="522" y="301" width="70" height="30" as="geometry" />
        </mxCell>
        <mxCell id="hk00Rdq8uAhm8ICl378K-52" value="version" style="ellipse;whiteSpace=wrap;html=1;" vertex="1" parent="1">
          <mxGeometry x="531" y="325" width="70" height="30" as="geometry" />
        </mxCell>
        <mxCell id="hk00Rdq8uAhm8ICl378K-53" value="students_gender" style="ellipse;whiteSpace=wrap;html=1;" vertex="1" parent="1">
          <mxGeometry x="540" y="350" width="110" height="30" as="geometry" />
        </mxCell>
        <mxCell id="hk00Rdq8uAhm8ICl378K-54" value="tutors_gender" style="ellipse;whiteSpace=wrap;html=1;" vertex="1" parent="1">
          <mxGeometry x="540" y="373" width="90" height="30" as="geometry" />
        </mxCell>
        <mxCell id="hk00Rdq8uAhm8ICl378K-55" value="institute" style="ellipse;whiteSpace=wrap;html=1;" vertex="1" parent="1">
          <mxGeometry x="546" y="397.5" width="70" height="30" as="geometry" />
        </mxCell>
        <mxCell id="hk00Rdq8uAhm8ICl378K-56" value="class" style="ellipse;whiteSpace=wrap;html=1;" vertex="1" parent="1">
          <mxGeometry x="540" y="421.5" width="70" height="30" as="geometry" />
        </mxCell>
        <mxCell id="hk00Rdq8uAhm8ICl378K-57" value="total_students" style="ellipse;whiteSpace=wrap;html=1;" vertex="1" parent="1">
          <mxGeometry x="540" y="445.5" width="90" height="30" as="geometry" />
        </mxCell>
        <mxCell id="hk00Rdq8uAhm8ICl378K-58" value="subject" style="ellipse;whiteSpace=wrap;html=1;" vertex="1" parent="1">
          <mxGeometry x="550" y="472.5" width="70" height="30" as="geometry" />
        </mxCell>
        <mxCell id="hk00Rdq8uAhm8ICl378K-59" value="days" style="ellipse;whiteSpace=wrap;html=1;" vertex="1" parent="1">
          <mxGeometry x="546" y="497.5" width="70" height="30" as="geometry" />
        </mxCell>
        <mxCell id="hk00Rdq8uAhm8ICl378K-60" value="salary" style="ellipse;whiteSpace=wrap;html=1;" vertex="1" parent="1">
          <mxGeometry x="531" y="519.5" width="70" height="30" as="geometry" />
        </mxCell>
        <mxCell id="hk00Rdq8uAhm8ICl378K-61" value="status" style="ellipse;whiteSpace=wrap;html=1;" vertex="1" parent="1">
          <mxGeometry x="512" y="549.5" width="70" height="30" as="geometry" />
        </mxCell>
        <mxCell id="hk00Rdq8uAhm8ICl378K-84" style="edgeStyle=none;rounded=0;orthogonalLoop=1;jettySize=auto;html=1;exitX=1;exitY=0.5;exitDx=0;exitDy=0;entryX=0.057;entryY=0.767;entryDx=0;entryDy=0;entryPerimeter=0;" edge="1" parent="1" source="hk00Rdq8uAhm8ICl378K-6" target="hk00Rdq8uAhm8ICl378K-14">
          <mxGeometry relative="1" as="geometry" />
        </mxCell>
        <mxCell id="hk00Rdq8uAhm8ICl378K-90" style="edgeStyle=none;rounded=0;orthogonalLoop=1;jettySize=auto;html=1;exitX=1;exitY=0.5;exitDx=0;exitDy=0;entryX=0.114;entryY=0.667;entryDx=0;entryDy=0;entryPerimeter=0;endArrow=none;endFill=0;" edge="1" parent="1" source="hk00Rdq8uAhm8ICl378K-8" target="hk00Rdq8uAhm8ICl378K-48">
          <mxGeometry relative="1" as="geometry" />
        </mxCell>
        <mxCell id="hk00Rdq8uAhm8ICl378K-102" style="edgeStyle=none;rounded=0;orthogonalLoop=1;jettySize=auto;html=1;exitX=1;exitY=0.5;exitDx=0;exitDy=0;entryX=0.014;entryY=0.317;entryDx=0;entryDy=0;entryPerimeter=0;endArrow=none;endFill=0;" edge="1" parent="1" source="hk00Rdq8uAhm8ICl378K-8" target="hk00Rdq8uAhm8ICl378K-61">
          <mxGeometry relative="1" as="geometry" />
        </mxCell>
        <mxCell id="hk00Rdq8uAhm8ICl378K-105" style="edgeStyle=none;rounded=0;orthogonalLoop=1;jettySize=auto;html=1;exitX=0.5;exitY=1;exitDx=0;exitDy=0;entryX=0.671;entryY=0.083;entryDx=0;entryDy=0;entryPerimeter=0;endArrow=none;endFill=0;" edge="1" parent="1" source="hk00Rdq8uAhm8ICl378K-9" target="hk00Rdq8uAhm8ICl378K-37">
          <mxGeometry relative="1" as="geometry" />
        </mxCell>
        <mxCell id="hk00Rdq8uAhm8ICl378K-107" style="edgeStyle=none;rounded=0;orthogonalLoop=1;jettySize=auto;html=1;exitX=0;exitY=0.5;exitDx=0;exitDy=0;entryX=1;entryY=0.783;entryDx=0;entryDy=0;entryPerimeter=0;" edge="1" parent="1" source="hk00Rdq8uAhm8ICl378K-7" target="hk00Rdq8uAhm8ICl378K-40">
          <mxGeometry relative="1" as="geometry" />
        </mxCell>
        <mxCell id="hk00Rdq8uAhm8ICl378K-112" style="edgeStyle=none;rounded=0;orthogonalLoop=1;jettySize=auto;html=1;entryX=0.971;entryY=0.283;entryDx=0;entryDy=0;entryPerimeter=0;" edge="1" parent="1" source="hk00Rdq8uAhm8ICl378K-7" target="hk00Rdq8uAhm8ICl378K-45">
          <mxGeometry relative="1" as="geometry" />
        </mxCell>
        <mxCell id="hk00Rdq8uAhm8ICl378K-117" style="edgeStyle=orthogonalEdgeStyle;rounded=0;orthogonalLoop=1;jettySize=auto;html=1;exitX=0.5;exitY=0;exitDx=0;exitDy=0;endArrow=ERone;endFill=0;" edge="1" parent="1" source="hk00Rdq8uAhm8ICl378K-113" target="hk00Rdq8uAhm8ICl378K-3">
          <mxGeometry relative="1" as="geometry" />
        </mxCell>
        <mxCell id="hk00Rdq8uAhm8ICl378K-113" value="is_from" style="rhombus;whiteSpace=wrap;html=1;" vertex="1" parent="1">
          <mxGeometry x="260" y="231" width="70" height="40" as="geometry" />
        </mxCell>
        <mxCell id="hk00Rdq8uAhm8ICl378K-116" style="edgeStyle=orthogonalEdgeStyle;rounded=0;orthogonalLoop=1;jettySize=auto;html=1;exitX=0;exitY=0.5;exitDx=0;exitDy=0;endArrow=ERone;endFill=0;" edge="1" parent="1" source="hk00Rdq8uAhm8ICl378K-114" target="hk00Rdq8uAhm8ICl378K-3">
          <mxGeometry relative="1" as="geometry" />
        </mxCell>
        <mxCell id="hk00Rdq8uAhm8ICl378K-114" value="is_from" style="rhombus;whiteSpace=wrap;html=1;" vertex="1" parent="1">
          <mxGeometry x="322" y="152" width="70" height="40" as="geometry" />
        </mxCell>
        <mxCell id="hk00Rdq8uAhm8ICl378K-122" style="edgeStyle=orthogonalEdgeStyle;rounded=0;orthogonalLoop=1;jettySize=auto;html=1;exitX=0.5;exitY=0;exitDx=0;exitDy=0;entryX=0.5;entryY=1;entryDx=0;entryDy=0;endArrow=ERone;endFill=0;" edge="1" parent="1" source="hk00Rdq8uAhm8ICl378K-119" target="hk00Rdq8uAhm8ICl378K-5">
          <mxGeometry relative="1" as="geometry" />
        </mxCell>
        <mxCell id="hk00Rdq8uAhm8ICl378K-119" value="is_from" style="rhombus;whiteSpace=wrap;html=1;" vertex="1" parent="1">
          <mxGeometry x="147" y="147" width="70" height="40" as="geometry" />
        </mxCell>
        <mxCell id="hk00Rdq8uAhm8ICl378K-125" style="edgeStyle=orthogonalEdgeStyle;rounded=0;orthogonalLoop=1;jettySize=auto;html=1;exitX=1;exitY=0.5;exitDx=0;exitDy=0;endArrow=ERone;endFill=0;" edge="1" parent="1" source="hk00Rdq8uAhm8ICl378K-123" target="hk00Rdq8uAhm8ICl378K-4">
          <mxGeometry relative="1" as="geometry" />
        </mxCell>
        <mxCell id="hk00Rdq8uAhm8ICl378K-123" value="is_from" style="rhombus;whiteSpace=wrap;html=1;" vertex="1" parent="1">
          <mxGeometry x="357" y="87" width="70" height="40" as="geometry" />
        </mxCell>
        <mxCell id="hk00Rdq8uAhm8ICl378K-129" style="edgeStyle=orthogonalEdgeStyle;rounded=0;orthogonalLoop=1;jettySize=auto;html=1;exitX=0.5;exitY=1;exitDx=0;exitDy=0;endArrow=ERoneToMany;endFill=0;" edge="1" parent="1" source="hk00Rdq8uAhm8ICl378K-126" target="hk00Rdq8uAhm8ICl378K-8">
          <mxGeometry relative="1" as="geometry" />
        </mxCell>
        <mxCell id="hk00Rdq8uAhm8ICl378K-126" value="created" style="rhombus;whiteSpace=wrap;html=1;" vertex="1" parent="1">
          <mxGeometry x="344" y="266" width="70" height="40" as="geometry" />
        </mxCell>
        <mxCell id="hk00Rdq8uAhm8ICl378K-134" style="edgeStyle=orthogonalEdgeStyle;rounded=0;orthogonalLoop=1;jettySize=auto;html=1;exitX=0.5;exitY=1;exitDx=0;exitDy=0;endArrow=ERoneToMany;endFill=0;" edge="1" parent="1" source="hk00Rdq8uAhm8ICl378K-127" target="hk00Rdq8uAhm8ICl378K-9">
          <mxGeometry relative="1" as="geometry" />
        </mxCell>
        <mxCell id="hk00Rdq8uAhm8ICl378K-127" value="created" style="rhombus;whiteSpace=wrap;html=1;" vertex="1" parent="1">
          <mxGeometry x="167" y="310" width="70" height="40" as="geometry" />
        </mxCell>
        <mxCell id="hk00Rdq8uAhm8ICl378K-135" style="edgeStyle=orthogonalEdgeStyle;rounded=0;orthogonalLoop=1;jettySize=auto;html=1;exitX=0;exitY=0.5;exitDx=0;exitDy=0;endArrow=ERoneToMany;endFill=0;" edge="1" parent="1" source="hk00Rdq8uAhm8ICl378K-131" target="hk00Rdq8uAhm8ICl378K-9">
          <mxGeometry relative="1" as="geometry" />
        </mxCell>
        <mxCell id="hk00Rdq8uAhm8ICl378K-136" style="edgeStyle=orthogonalEdgeStyle;rounded=0;orthogonalLoop=1;jettySize=auto;html=1;exitX=1;exitY=0.5;exitDx=0;exitDy=0;endArrow=ERone;endFill=0;" edge="1" parent="1" source="hk00Rdq8uAhm8ICl378K-131" target="hk00Rdq8uAhm8ICl378K-8">
          <mxGeometry relative="1" as="geometry" />
        </mxCell>
        <mxCell id="hk00Rdq8uAhm8ICl378K-131" value="for" style="rhombus;whiteSpace=wrap;html=1;" vertex="1" parent="1">
          <mxGeometry x="252" y="387.5" width="70" height="40" as="geometry" />
        </mxCell>
      </root>
    </mxGraphModel>
  </diagram>
</mxfile>
